<svg version="1.1" viewBox="0.0 0.0 600.0 371.0" fill="none" stroke="none" stroke-linecap="square" stroke-miterlimit="10" width="600" height="371" xmlns:xlink="http://www.w3.org/1999/xlink" xmlns="http://www.w3.org/2000/svg"><path fill="#ffffff" fill-opacity="0.0" d="M0 0L600.0 0L600.0 371.0L0 371.0L0 0Z" fill-rule="nonzero"/><path fill="#4285f4" d="M300.0 18.55C304.07053 18.55 308.1397 18.69887 312.19937 18.996311L300.0 185.5Z" fill-rule="nonzero"/><path fill="#ea4335" d="M312.19937 18.996311C316.2704 19.294586 320.32907 19.742065 324.3673 20.337845L300.0 185.5Z" fill-rule="nonzero"/><path fill="#fbbc04" d="M324.3673 20.337845C328.40588 20.933681 332.42126 21.677446 336.40533 22.56764L300.0 185.5Z" fill-rule="nonzero"/><path fill="#34a853" d="M336.40533 22.56764C340.38968 23.457897 344.34003 24.494003 348.2484 25.673868L300.0 185.5Z" fill-rule="nonzero"/><path fill="#ff6d01" d="M348.2484 25.673868C352.1761 26.859554 356.05872 28.189617 359.88837 29.66135L300.0 185.5Z" fill-rule="nonzero"/><path fill="#46bdc6" d="M359.88837 29.66135C363.71823 31.13315 367.49252 32.745632 371.20355 34.49551L300.0 185.5Z" fill-rule="nonzero"/><path fill="#7baaf7" d="M371.20355 34.49551C374.91504 36.245594 378.56073 38.131912 382.1332 40.15063L300.0 185.5Z" fill-rule="nonzero"/><path fill="#fcd04f" d="M382.1332 40.15063C385.70602 42.169533 389.20316 44.319485 392.61755 46.5961L300.0 185.5Z" fill-rule="nonzero"/><path fill="#71c287" d="M392.61755 46.5961C396.03232 48.872982 399.36197 51.27501 402.5997 53.79729L300.0 185.5Z" fill-rule="nonzero"/><path fill="#7ed1d7" d="M402.5997 53.79729C405.8379 56.31992 408.98193 58.961117 412.02545 61.715496L300.0 185.5Z" fill-rule="nonzero"/><path fill="#f7b4ae" d="M412.02545 61.715496C415.0692 64.47013 418.01038 67.3361 420.8429 70.30755L300.0 185.5Z" fill-rule="nonzero"/><path fill="#fde49b" d="M420.8429 70.30755C423.67554 73.27914 426.39758 76.3542 429.00354 79.52647L300.0 185.5Z" fill-rule="nonzero"/><path fill="#aedcba" d="M429.00354 79.52647C431.6096 82.698875 434.09775 85.96634 436.46292 89.32218L300.0 185.5Z" fill-rule="nonzero"/><path fill="#ffc599" d="M436.46292 89.32218C438.82822 92.67819 441.06888 96.1203 443.1804 99.64151L300.0 185.5Z" fill-rule="nonzero"/><path fill="#b5e5e8" d="M443.1804 99.64151C445.29202 103.16296 447.27304 106.76111 449.1194 110.42863L300.0 185.5Z" fill-rule="nonzero"/><path fill="#ecf3fe" d="M449.1194 110.42863C450.96582 114.09631 452.6763 117.83087 454.24734 121.62469L300.0 185.5Z" fill-rule="nonzero"/><path fill="#fff8e6" d="M454.24734 121.62469C455.8186 125.41894 457.2493 129.26987 458.53653 133.16963L300.0 185.5Z" fill-rule="nonzero"/><path fill="#ebf6ee" d="M458.53653 133.16963C459.82385 137.06956 460.9668 141.01567 461.9631 144.99991L300.0 185.5Z" fill-rule="nonzero"/><path fill="#fff0e6" d="M461.9631 144.99991C462.95944 148.98431 463.80838 153.00414 464.50827 157.05116L300.0 185.5Z" fill-rule="nonzero"/><path fill="#edf8f9" d="M464.50827 157.05116C465.20816 161.09839 465.75845 165.17004 466.15805 169.25784L300.0 185.5Z" fill-rule="nonzero"/><path fill="#251701" d="M466.15805 169.25784C466.55765 173.34593 466.80627 177.44737 466.90335 181.5538L300.0 185.5Z" fill-rule="nonzero"/><path fill="#032527" d="M466.90335 181.5538C467.00046 185.66042 466.94595 189.76921 466.73996 193.8718L300.0 185.5Z" fill-rule="nonzero"/><path fill="#000c31" d="M466.73996 193.8718C466.53397 197.97469 466.1766 202.06856 465.6686 206.14507L300.0 185.5Z" fill-rule="nonzero"/><path fill="#281021" d="M465.6686 206.14507C465.16058 210.22177 464.50223 214.27834 463.69495 218.30647L300.0 185.5Z" fill-rule="nonzero"/><path fill="#ff1c32" d="M463.69495 218.30647C462.88763 222.3348 461.9319 226.33194 460.82965 230.28975L300.0 185.5Z" fill-rule="nonzero"/><path fill="#240c0a" d="M460.82965 230.28975C459.72733 234.24803 458.47922 238.16425 457.08792 242.03043L300.0 185.5Z" fill-rule="nonzero"/><path fill="#5e3c05" d="M457.08792 242.03043C455.69672 245.89635 454.16327 249.70958 452.49072 253.46236L300.0 185.5Z" fill-rule="nonzero"/><path fill="#0a5d64" d="M452.49072 253.46236C450.818 257.21555 449.00726 260.90573 447.06223 264.52533L300.0 185.5Z" fill-rule="nonzero"/><path fill="#01217d" d="M447.06223 264.52533C445.11707 268.14517 443.0389 271.692 440.83203 275.15848L300.0 185.5Z" fill-rule="nonzero"/><path fill="#652b55" d="M440.83203 275.15848C438.62503 278.62512 436.2908 282.00912 433.83408 285.30353L300.0 185.5Z" fill-rule="nonzero"/><path fill="#ff487e" d="M433.83408 285.30353C431.37726 288.59805 428.7996 291.80078 426.1064 294.9051L300.0 185.5Z" fill-rule="nonzero"/><path fill="#5c201c" d="M426.1064 294.9051C423.4129 298.00977 420.60568 301.01392 417.69043 303.9114L300.0 185.5Z" fill-rule="nonzero"/><path fill="#966108" d="M417.69043 303.9114C414.77542 306.8087 411.7544 309.59735 408.63354 312.27167L300.0 185.5Z" fill-rule="nonzero"/><path fill="#1095a1" d="M408.63354 312.27167C405.51233 314.9463 402.29343 317.50473 398.98337 319.94177L300.0 185.5Z" fill-rule="nonzero"/><path fill="#0235c8" d="M398.98337 319.94177C395.6732 322.37894 392.2741 324.693 388.7931 326.87924L300.0 185.5Z" fill-rule="nonzero"/><path fill="#a14589" d="M388.7931 326.87924C385.31183 329.06564 381.751 331.1227 378.11792 333.04623L300.0 185.5Z" fill-rule="nonzero"/><path fill="#ff74ca" d="M378.11792 333.04623C374.48465 334.96988 370.78156 336.75864 367.01624 338.40887L300.0 185.5Z" fill-rule="nonzero"/><path fill="#93342d" d="M367.01624 338.40887C363.25073 340.0592 359.42554 341.5699 355.54852 342.9378L300.0 185.5Z" fill-rule="nonzero"/><path fill="#cf850b" d="M355.54852 342.9378C351.6712 344.30585 347.74472 345.53015 343.777 346.60828L300.0 185.5Z" fill-rule="nonzero"/><path fill="#16cedd" d="M343.777 346.60828C339.80914 347.68643 335.8028 348.61765 331.76614 349.40002L300.0 185.5Z" fill-rule="nonzero"/><path fill="#034913" d="M331.76614 349.40002C327.72925 350.18243 323.6648 350.81543 319.58115 351.2977L300.0 185.5Z" fill-rule="nonzero"/><path fill="#de5fbc" d="M319.58115 351.2977C315.4973 351.78003 311.39703 352.1113 307.28873 352.29083L300.0 185.5Z" fill-rule="nonzero"/><path fill="#ffd22c" d="M287.60266 19.010935C291.72797 18.70375 295.86328 18.55 300.0 18.55L300.0 185.5Z" fill-rule="nonzero"/><path fill="#891525" d="M275.22818 20.398035C279.33432 19.78195 283.46204 19.319262 287.60266 19.010935L300.0 185.5Z" fill-rule="nonzero"/><path fill="#0cd522" d="M262.99313 22.703209C267.0414 21.78296 271.1226 21.014034 275.22818 20.398035L300.0 185.5Z" fill-rule="nonzero"/><path fill="#425985" d="M250.96446 25.913599C254.93272 24.69429 258.94507 23.623415 262.99313 22.703209L300.0 185.5Z" fill-rule="nonzero"/><path fill="#5c8522" d="M239.2159 30.008533C243.07985 28.498055 246.99876 27.132128 250.96446 25.913599L300.0 185.5Z" fill-rule="nonzero"/><path fill="#18bea4" d="M227.80518 34.96691C231.54582 33.17292 235.35205 31.518978 239.2159 30.008533L300.0 185.5Z" fill-rule="nonzero"/><path fill="#ffa6e0" d="M216.82527 40.744114C220.4124 38.683002 224.07489 36.755936 227.80518 34.96691L300.0 185.5Z" fill-rule="nonzero"/><path fill="#4cfbf2" d="M206.30566 47.320137C209.72952 44.998558 213.23848 42.805035 216.82527 40.744114L300.0 185.5Z" fill-rule="nonzero"/><path fill="#0bc1d7" d="M196.32574 54.64148C199.56075 52.078514 202.88968 49.636387 206.30566 47.320137L300.0 185.5Z" fill-rule="nonzero"/><path fill="#3c2049" d="M186.92406 62.674374C189.95767 59.881557 193.09372 57.20209 196.32574 54.64148L300.0 185.5Z" fill-rule="nonzero"/><path fill="#23611f" d="M178.1443 71.37948C180.9624 68.37037 183.89099 65.466675 186.92406 62.674374L300.0 185.5Z" fill-rule="nonzero"/><path fill="#e0ab93" d="M170.03358 80.70958C172.62105 77.50048 175.32648 74.38831 178.1443 71.37948L300.0 185.5Z" fill-rule="nonzero"/><path fill="#ff7b93" d="M162.63615 90.61335C164.97887 87.2219 167.44637 83.91838 170.03358 80.70958L300.0 185.5Z" fill-rule="nonzero"/><path fill="#0fe1be" d="M155.9921 101.03683C158.07736 97.481514 160.29356 94.00464 162.63615 90.61335L300.0 185.5Z" fill-rule="nonzero"/><path fill="#09ad8c" d="M150.13799 111.9223C151.95433 108.2228 153.90703 104.59182 155.9921 101.03683L300.0 185.5Z" fill-rule="nonzero"/><path fill="#36e80c" d="M145.10565 123.20999C146.6432 119.38661 148.32181 115.62147 150.13799 111.9223L300.0 185.5Z" fill-rule="nonzero"/><path fill="#ea3c1c" d="M140.9223 134.83849C142.17276 130.91202 143.56818 127.0332 145.10565 123.20999L300.0 185.5Z" fill-rule="nonzero"/><path fill="#a99782" d="M137.61125 146.74179C138.56769 142.73453 139.67213 138.76404 140.9223 134.83849L300.0 185.5Z" fill-rule="nonzero"/><path fill="#ff4f47" d="M135.18968 158.85681C135.84712 154.78998 136.65486 150.74887 137.61125 146.74179L300.0 185.5Z" fill-rule="nonzero"/><path fill="#d2c78b" d="M133.67073 171.11688C134.02562 167.01285 134.53227 162.92336 135.18968 158.85681L300.0 185.5Z" fill-rule="nonzero"/><path fill="#089940" d="M133.06253 183.45485C133.11299 179.3361 133.31586 175.22063 133.67073 171.11688L300.0 185.5Z" fill-rule="nonzero"/><path fill="#2fafd0" d="M133.36823 195.80318C133.11404 191.69225 133.01207 187.57332 133.06253 183.45485L300.0 185.5Z" fill-rule="nonzero"/><path fill="#b21818" d="M134.586 208.09453C134.02861 204.01382 133.6224 199.91391 133.36823 195.80318L300.0 185.5Z" fill-rule="nonzero"/><path fill="#718371" d="M136.70888 220.26082C135.85146 216.23296 135.14334 212.17474 134.586 208.09453L300.0 185.5Z" fill-rule="nonzero"/><path fill="#ff23fb" d="M139.7247 232.2347C138.57213 228.28195 137.56616 224.28793 136.70888 220.26082L300.0 185.5Z" fill-rule="nonzero"/><path fill="#95ad57" d="M143.61697 243.95212C142.1755 240.09564 140.8772 236.18716 139.7247 232.2347L300.0 185.5Z" fill-rule="nonzero"/><path fill="#0785f5" d="M148.3641 255.34882C146.64175 251.60974 145.05829 247.80824 143.61697 243.95212L300.0 185.5Z" fill-rule="nonzero"/><path fill="#297793" d="M153.94017 266.36304C151.94633 262.76163 150.08636 259.0877 148.3641 255.34882L300.0 185.5Z" fill-rule="nonzero"/><path fill="#79f315" d="M160.31444 276.9344C158.06009 273.4904 155.93388 269.9642 153.94017 266.36304L300.0 185.5Z" fill-rule="nonzero"/><path fill="#3a6f60" d="M167.45187 287.00516C164.9494 283.73737 162.56863 280.37814 160.31444 276.9344L300.0 185.5Z" fill-rule="nonzero"/><path fill="#fff7af" d="M175.31332 296.52042C172.57645 293.44666 169.95418 290.27274 167.45187 287.00516L300.0 185.5Z" fill-rule="nonzero"/><path fill="#589323" d="M183.85545 305.42807C180.89926 302.56516 178.04994 299.5939 175.31332 296.52042L300.0 185.5Z" fill-rule="nonzero"/><path fill="#0671aa" d="M193.0314 313.67966C189.8721 311.04315 186.81136 308.29074 183.85545 305.42807L300.0 185.5Z" fill-rule="nonzero"/><path fill="#233f56" d="M202.79134 321.23053C199.44608 318.83472 196.19055 316.316 193.0314 313.67966L300.0 185.5Z" fill-rule="nonzero"/><path fill="#40ce12" d="M213.08209 328.03973C209.5691 325.89758 206.1365 323.6263 202.79134 321.23053L300.0 185.5Z" fill-rule="nonzero"/><path fill="#025b4f" d="M223.84666 334.06976C220.18541 332.19308 216.59476 330.1817 213.08209 328.03973L300.0 185.5Z" fill-rule="nonzero"/><path fill="#ffcb63" d="M235.02667 339.28806C231.23698 337.68698 227.50777 335.94635 223.84666 334.06976L300.0 185.5Z" fill-rule="nonzero"/><path fill="#1b79f0" d="M246.5607 343.6662C242.66339 342.34943 238.81609 340.88904 235.02667 339.28806L300.0 185.5Z" fill-rule="nonzero"/><path fill="#055d5e" d="M258.38602 347.18048C254.40228 346.15512 250.45782 344.9829 246.5607 343.6662L300.0 185.5Z" fill-rule="nonzero"/><path fill="#1c061a" d="M270.43768 349.8118C266.3894 349.08347 262.36945 348.20575 258.38602 347.18048L300.0 185.5Z" fill-rule="nonzero"/><path fill="#08aa0e" d="M282.65018 351.54605C278.5594 351.1186 274.48578 350.54013 270.43768 349.8118L300.0 185.5Z" fill-rule="nonzero"/><path fill="#ca483e" d="M294.956 352.37378C290.84525 352.24954 286.74054 351.97342 282.65018 351.54605L300.0 185.5Z" fill-rule="nonzero"/><path fill="#ffa016" d="M307.28873 352.29083C303.18024 352.47037 299.06653 352.49805 294.956 352.37378L300.0 185.5Z" fill-rule="nonzero"/><path fill="#9e9e9e" d="M23.01875 46.55L21.971874 46.55L21.971874 39.83125Q21.58125 40.190624 20.95625 40.565624Q20.346874 40.925 19.8625 41.096874L19.8625 40.08125Q20.7375 39.659374 21.39375 39.08125Q22.065624 38.4875 22.346874 37.925L23.01875 37.925L23.01875 46.55ZM26.64375 46.55L26.64375 45.346874L27.846874 45.346874L27.846874 46.55L26.64375 46.55ZM34.596874 45.534374L34.596874 46.55L28.909374 46.55Q28.909374 46.175 29.034374 45.815624Q29.253124 45.2375 29.721874 44.675Q30.20625 44.1125 31.1125 43.378124Q32.51875 42.221874 33.003124 41.55Q33.503124 40.878124 33.503124 40.284374Q33.503124 39.659374 33.05 39.2375Q32.596874 38.8 31.878124 38.8Q31.1125 38.8 30.659374 39.253124Q30.20625 39.70625 30.190624 40.51875L29.1125 40.409374Q29.221874 39.190624 29.940624 38.565624Q30.675 37.925 31.909374 37.925Q33.14375 37.925 33.8625 38.6125Q34.58125 39.3 34.58125 40.315624Q34.58125 40.83125 34.3625 41.33125Q34.159374 41.815624 33.659374 42.378124Q33.175 42.925 32.05 43.878124Q31.096874 44.675 30.815624 44.971874Q30.55 45.253124 30.378124 45.534374L34.596874 45.534374ZM36.253124 40.01875Q36.253124 39.096874 36.70625 38.45625Q37.175 37.815624 38.05 37.815624Q38.8625 37.815624 39.39375 38.39375Q39.925 38.971874 39.925 40.08125Q39.925 41.175 39.378124 41.76875Q38.846874 42.346874 38.065624 42.346874Q37.284374 42.346874 36.76875 41.76875Q36.253124 41.190624 36.253124 40.01875ZM38.08125 38.534374Q37.690624 38.534374 37.425 38.878124Q37.175 39.221874 37.175 40.128124Q37.175 40.95625 37.425 41.3Q37.690624 41.628124 38.08125 41.628124Q38.4875 41.628124 38.7375 41.284374Q39.003124 40.940624 39.003124 40.05Q39.003124 39.20625 38.7375 38.878124Q38.471874 38.534374 38.08125 38.534374ZM38.08125 46.8625L42.784374 37.815624L43.64375 37.815624L38.95625 46.8625L38.08125 46.8625ZM41.8 44.534374Q41.8 43.6125 42.253124 42.971874Q42.721874 42.33125 43.6125 42.33125Q44.425 42.33125 44.95625 42.909374Q45.4875 43.471874 45.4875 44.596874Q45.4875 45.690624 44.940624 46.284374Q44.409374 46.8625 43.6125 46.8625Q42.846874 46.8625 42.315624 46.284374Q41.8 45.70625 41.8 44.534374ZM43.64375 43.05Q43.2375 43.05 42.971874 43.39375Q42.721874 43.7375 42.721874 44.64375Q42.721874 45.45625 42.9875 45.8Q43.253124 46.14375 43.64375 46.14375Q44.034374 46.14375 44.3 45.8Q44.565624 45.45625 44.565624 44.55Q44.565624 43.721874 44.3 43.39375Q44.034374 43.05 43.64375 43.05Z" fill-rule="nonzero"/><path stroke="#757575" stroke-width="1.0" stroke-linecap="butt" d="M18.55 34.05L127.05 34.05L282.33237 27.88462" fill-rule="nonzero"/><path fill="#9e9e9e" d="M284.33237 27.88462C284.33237 26.780052 283.43692 25.88462 282.33237 25.88462C281.22778 25.88462 280.33237 26.780052 280.33237 27.88462C280.33237 28.989191 281.22778 29.88462 282.33237 29.88462C283.43692 29.88462 284.33237 28.989191 284.33237 27.88462" fill-rule="nonzero"/><path fill="#9e9e9e" d="M23.01875 85.373344L21.971874 85.373344L21.971874 78.654594Q21.58125 79.01397 20.95625 79.38897Q20.346874 79.748344 19.8625 79.92022L19.8625 78.904594Q20.7375 78.48272 21.39375 77.904594Q22.065624 77.310844 22.346874 76.748344L23.01875 76.748344L23.01875 85.373344ZM26.64375 85.373344L26.64375 84.17022L27.846874 84.17022L27.846874 85.373344L26.64375 85.373344ZM34.596874 84.35772L34.596874 85.373344L28.909374 85.373344Q28.909374 84.998344 29.034374 84.63897Q29.253124 84.060844 29.721874 83.498344Q30.20625 82.935844 31.1125 82.20147Q32.51875 81.04522 33.003124 80.373344Q33.503124 79.70147 33.503124 79.10772Q33.503124 78.48272 33.05 78.060844Q32.596874 77.623344 31.878124 77.623344Q31.1125 77.623344 30.659374 78.07647Q30.20625 78.529594 30.190624 79.342094L29.1125 79.23272Q29.221874 78.01397 29.940624 77.38897Q30.675 76.748344 31.909374 76.748344Q33.14375 76.748344 33.8625 77.435844Q34.58125 78.123344 34.58125 79.13897Q34.58125 79.654594 34.3625 80.154594Q34.159374 80.63897 33.659374 81.20147Q33.175 81.748344 32.05 82.70147Q31.096874 83.498344 30.815624 83.79522Q30.55 84.07647 30.378124 84.35772L34.596874 84.35772ZM36.253124 78.842094Q36.253124 77.92022 36.70625 77.279594Q37.175 76.63897 38.05 76.63897Q38.8625 76.63897 39.39375 77.217094Q39.925 77.79522 39.925 78.904594Q39.925 79.998344 39.378124 80.592094Q38.846874 81.17022 38.065624 81.17022Q37.284374 81.17022 36.76875 80.592094Q36.253124 80.01397 36.253124 78.842094ZM38.08125 77.35772Q37.690624 77.35772 37.425 77.70147Q37.175 78.04522 37.175 78.95147Q37.175 79.779594 37.425 80.123344Q37.690624 80.45147 38.08125 80.45147Q38.4875 80.45147 38.7375 80.10772Q39.003124 79.76397 39.003124 78.873344Q39.003124 78.029594 38.7375 77.70147Q38.471874 77.35772 38.08125 77.35772ZM38.08125 85.685844L42.784374 76.63897L43.64375 76.63897L38.95625 85.685844L38.08125 85.685844ZM41.8 83.35772Q41.8 82.435844 42.253124 81.79522Q42.721874 81.154594 43.6125 81.154594Q44.425 81.154594 44.95625 81.73272Q45.4875 82.29522 45.4875 83.42022Q45.4875 84.51397 44.940624 85.10772Q44.409374 85.685844 43.6125 85.685844Q42.846874 85.685844 42.315624 85.10772Q41.8 84.529594 41.8 83.35772ZM43.64375 81.873344Q43.2375 81.873344 42.971874 82.217094Q42.721874 82.560844 42.721874 83.467094Q42.721874 84.279594 42.9875 84.623344Q43.253124 84.967094 43.64375 84.967094Q44.034374 84.967094 44.3 84.623344Q44.565624 84.279594 44.565624 83.373344Q44.565624 82.54522 44.3 82.217094Q44.034374 81.873344 43.64375 81.873344Z" fill-rule="nonzero"/><path stroke="#757575" stroke-width="1.0" stroke-linecap="butt" d="M18.55 72.873344L127.05 72.873344L188.33089 72.873344" fill-rule="nonzero"/><path fill="#9e9e9e" d="M190.33089 72.873344C190.33089 71.768776 189.43547 70.873344 188.33089 70.873344C187.22632 70.873344 186.33089 71.768776 186.33089 72.873344C186.33089 73.97791 187.22632 74.873344 188.33089 74.873344C189.43547 74.873344 190.33089 73.97791 190.33089 72.873344" fill-rule="nonzero"/><path fill="#9e9e9e" d="M23.01875 122.879105L21.971874 122.879105L21.971874 116.160355Q21.58125 116.51973 20.95625 116.89473Q20.346874 117.254105 19.8625 117.42598L19.8625 116.410355Q20.7375 115.98848 21.39375 115.410355Q22.065624 114.816605 22.346874 114.254105L23.01875 114.254105L23.01875 122.879105ZM26.64375 122.879105L26.64375 121.67598L27.846874 121.67598L27.846874 122.879105L26.64375 122.879105ZM34.596874 121.86348L34.596874 122.879105L28.909374 122.879105Q28.909374 122.504105 29.034374 122.14473Q29.253124 121.566605 29.721874 121.004105Q30.20625 120.441605 31.1125 119.70723Q32.51875 118.55098 33.003124 117.879105Q33.503124 117.20723 33.503124 116.61348Q33.503124 115.98848 33.05 115.566605Q32.596874 115.129105 31.878124 115.129105Q31.1125 115.129105 30.659374 115.58223Q30.20625 116.035355 30.190624 116.847855L29.1125 116.73848Q29.221874 115.51973 29.940624 114.89473Q30.675 114.254105 31.909374 114.254105Q33.14375 114.254105 33.8625 114.941605Q34.58125 115.629105 34.58125 116.64473Q34.58125 117.160355 34.3625 117.660355Q34.159374 118.14473 33.659374 118.70723Q33.175 119.254105 32.05 120.20723Q31.096874 121.004105 30.815624 121.30098Q30.55 121.58223 30.378124 121.86348L34.596874 121.86348ZM36.253124 116.347855Q36.253124 115.42598 36.70625 114.785355Q37.175 114.14473 38.05 114.14473Q38.8625 114.14473 39.39375 114.722855Q39.925 115.30098 39.925 116.410355Q39.925 117.504105 39.378124 118.097855Q38.846874 118.67598 38.065624 118.67598Q37.284374 118.67598 36.76875 118.097855Q36.253124 117.51973 36.253124 116.347855ZM38.08125 114.86348Q37.690624 114.86348 37.425 115.20723Q37.175 115.55098 37.175 116.45723Q37.175 117.285355 37.425 117.629105Q37.690624 117.95723 38.08125 117.95723Q38.4875 117.95723 38.7375 117.61348Q39.003124 117.26973 39.003124 116.379105Q39.003124 115.535355 38.7375 115.20723Q38.471874 114.86348 38.08125 114.86348ZM38.08125 123.191605L42.784374 114.14473L43.64375 114.14473L38.95625 123.191605L38.08125 123.191605ZM41.8 120.86348Q41.8 119.941605 42.253124 119.30098Q42.721874 118.660355 43.6125 118.660355Q44.425 118.660355 44.95625 119.23848Q45.4875 119.80098 45.4875 120.92598Q45.4875 122.01973 44.940624 122.61348Q44.409374 123.191605 43.6125 123.191605Q42.846874 123.191605 42.315624 122.61348Q41.8 122.035355 41.8 120.86348ZM43.64375 119.379105Q43.2375 119.379105 42.971874 119.722855Q42.721874 120.066605 42.721874 120.972855Q42.721874 121.785355 42.9875 122.129105Q43.253124 122.472855 43.64375 122.472855Q44.034374 122.472855 44.3 122.129105Q44.565624 121.785355 44.565624 120.879105Q44.565624 120.05098 44.3 119.722855Q44.034374 119.379105 43.64375 119.379105Z" fill-rule="nonzero"/><path stroke="#757575" stroke-width="1.0" stroke-linecap="butt" d="M18.55 110.379105L127.05 110.379105L160.31606 110.379105" fill-rule="nonzero"/><path fill="#9e9e9e" d="M162.31606 110.379105C162.31606 109.274536 161.42062 108.379105 160.31606 108.379105C159.21149 108.379105 158.31606 109.274536 158.31606 110.379105C158.31606 111.48367 159.21149 112.379105 160.31606 112.379105C161.42062 112.379105 162.31606 111.48367 162.31606 110.379105" fill-rule="nonzero"/><path fill="#9e9e9e" d="M23.01875 155.49652L21.971874 155.49652L21.971874 148.77777Q21.58125 149.13715 20.95625 149.51215Q20.346874 149.87152 19.8625 150.0434L19.8625 149.02777Q20.7375 148.6059 21.39375 148.02777Q22.065624 147.43402 22.346874 146.87152L23.01875 146.87152L23.01875 155.49652ZM26.64375 155.49652L26.64375 154.2934L27.846874 154.2934L27.846874 155.49652L26.64375 155.49652ZM34.596874 154.4809L34.596874 155.49652L28.909374 155.49652Q28.909374 155.12152 29.034374 154.76215Q29.253124 154.18402 29.721874 153.62152Q30.20625 153.05902 31.1125 152.32465Q32.51875 151.1684 33.003124 150.49652Q33.503124 149.82465 33.503124 149.2309Q33.503124 148.6059 33.05 148.18402Q32.596874 147.74652 31.878124 147.74652Q31.1125 147.74652 30.659374 148.19965Q30.20625 148.65277 30.190624 149.46527L29.1125 149.3559Q29.221874 148.13715 29.940624 147.51215Q30.675 146.87152 31.909374 146.87152Q33.14375 146.87152 33.8625 147.55902Q34.58125 148.24652 34.58125 149.26215Q34.58125 149.77777 34.3625 150.27777Q34.159374 150.76215 33.659374 151.32465Q33.175 151.87152 32.05 152.82465Q31.096874 153.62152 30.815624 153.9184Q30.55 154.19965 30.378124 154.4809L34.596874 154.4809ZM36.253124 148.96527Q36.253124 148.0434 36.70625 147.40277Q37.175 146.76215 38.05 146.76215Q38.8625 146.76215 39.39375 147.34027Q39.925 147.9184 39.925 149.02777Q39.925 150.12152 39.378124 150.71527Q38.846874 151.2934 38.065624 151.2934Q37.284374 151.2934 36.76875 150.71527Q36.253124 150.13715 36.253124 148.96527ZM38.08125 147.4809Q37.690624 147.4809 37.425 147.82465Q37.175 148.1684 37.175 149.07465Q37.175 149.90277 37.425 150.24652Q37.690624 150.57465 38.08125 150.57465Q38.4875 150.57465 38.7375 150.2309Q39.003124 149.88715 39.003124 148.99652Q39.003124 148.15277 38.7375 147.82465Q38.471874 147.4809 38.08125 147.4809ZM38.08125 155.80902L42.784374 146.76215L43.64375 146.76215L38.95625 155.80902L38.08125 155.80902ZM41.8 153.4809Q41.8 152.55902 42.253124 151.9184Q42.721874 151.27777 43.6125 151.27777Q44.425 151.27777 44.95625 151.8559Q45.4875 152.4184 45.4875 153.5434Q45.4875 154.63715 44.940624 155.2309Q44.409374 155.80902 43.6125 155.80902Q42.846874 155.80902 42.315624 155.2309Q41.8 154.65277 41.8 153.4809ZM43.64375 151.99652Q43.2375 151.99652 42.971874 152.34027Q42.721874 152.68402 42.721874 153.59027Q42.721874 154.40277 42.9875 154.74652Q43.253124 155.09027 43.64375 155.09027Q44.034374 155.09027 44.3 154.74652Q44.565624 154.40277 44.565624 153.49652Q44.565624 152.6684 44.3 152.34027Q44.034374 151.99652 43.64375 151.99652Z" fill-rule="nonzero"/><path stroke="#757575" stroke-width="1.0" stroke-linecap="butt" d="M18.55 142.99652L127.05 142.99652L147.19879 142.99652" fill-rule="nonzero"/><path fill="#9e9e9e" d="M149.19879 142.99652C149.19879 141.89195 148.30338 140.99652 147.19879 140.99652C146.09422 140.99652 145.19879 141.89195 145.19879 142.99652C145.19879 144.10109 146.09422 144.99652 147.19879 144.99652C148.30338 144.99652 149.19879 144.10109 149.19879 142.99652" fill-rule="nonzero"/><path fill="#9e9e9e" d="M23.01875 190.19122L21.971874 190.19122L21.971874 183.47247Q21.58125 183.83185 20.95625 184.20685Q20.346874 184.56622 19.8625 184.7381L19.8625 183.72247Q20.7375 183.3006 21.39375 182.72247Q22.065624 182.12872 22.346874 181.56622L23.01875 181.56622L23.01875 190.19122ZM26.64375 190.19122L26.64375 188.9881L27.846874 188.9881L27.846874 190.19122L26.64375 190.19122ZM34.596874 189.1756L34.596874 190.19122L28.909374 190.19122Q28.909374 189.81622 29.034374 189.45685Q29.253124 188.87872 29.721874 188.31622Q30.20625 187.75372 31.1125 187.01935Q32.51875 185.8631 33.003124 185.19122Q33.503124 184.51935 33.503124 183.9256Q33.503124 183.3006 33.05 182.87872Q32.596874 182.44122 31.878124 182.44122Q31.1125 182.44122 30.659374 182.89435Q30.20625 183.34747 30.190624 184.15997L29.1125 184.0506Q29.221874 182.83185 29.940624 182.20685Q30.675 181.56622 31.909374 181.56622Q33.14375 181.56622 33.8625 182.25372Q34.58125 182.94122 34.58125 183.95685Q34.58125 184.47247 34.3625 184.97247Q34.159374 185.45685 33.659374 186.01935Q33.175 186.56622 32.05 187.51935Q31.096874 188.31622 30.815624 188.6131Q30.55 188.89435 30.378124 189.1756L34.596874 189.1756ZM36.253124 183.65997Q36.253124 182.7381 36.70625 182.09747Q37.175 181.45685 38.05 181.45685Q38.8625 181.45685 39.39375 182.03497Q39.925 182.6131 39.925 183.72247Q39.925 184.81622 39.378124 185.40997Q38.846874 185.9881 38.065624 185.9881Q37.284374 185.9881 36.76875 185.40997Q36.253124 184.83185 36.253124 183.65997ZM38.08125 182.1756Q37.690624 182.1756 37.425 182.51935Q37.175 182.8631 37.175 183.76935Q37.175 184.59747 37.425 184.94122Q37.690624 185.26935 38.08125 185.26935Q38.4875 185.26935 38.7375 184.9256Q39.003124 184.58185 39.003124 183.69122Q39.003124 182.84747 38.7375 182.51935Q38.471874 182.1756 38.08125 182.1756ZM38.08125 190.50372L42.784374 181.45685L43.64375 181.45685L38.95625 190.50372L38.08125 190.50372ZM41.8 188.1756Q41.8 187.25372 42.253124 186.6131Q42.721874 185.97247 43.6125 185.97247Q44.425 185.97247 44.95625 186.5506Q45.4875 187.1131 45.4875 188.2381Q45.4875 189.33185 44.940624 189.9256Q44.409374 190.50372 43.6125 190.50372Q42.846874 190.50372 42.315624 189.9256Q41.8 189.34747 41.8 188.1756ZM43.64375 186.69122Q43.2375 186.69122 42.971874 187.03497Q42.721874 187.37872 42.721874 188.28497Q42.721874 189.09747 42.9875 189.44122Q43.253124 189.78497 43.64375 189.78497Q44.034374 189.78497 44.3 189.44122Q44.565624 189.09747 44.565624 188.19122Q44.565624 187.3631 44.3 187.03497Q44.034374 186.69122 43.64375 186.69122Z" fill-rule="nonzero"/><path stroke="#757575" stroke-width="1.0" stroke-linecap="butt" d="M18.55 177.69122L127.05 177.69122L141.58984 177.69122" fill-rule="nonzero"/><path fill="#9e9e9e" d="M143.58984 177.69122C143.58984 176.58665 142.69441 175.69122 141.58984 175.69122C140.48528 175.69122 139.58984 176.58665 139.58984 177.69122C139.58984 178.79579 140.48528 179.69122 141.58984 179.69122C142.69441 179.69122 143.58984 178.79579 143.58984 177.69122" fill-rule="nonzero"/><path fill="#9e9e9e" d="M23.01875 225.26244L21.971874 225.26244L21.971874 218.54369Q21.58125 218.90306 20.95625 219.27806Q20.346874 219.63744 19.8625 219.80931L19.8625 218.79369Q20.7375 218.37181 21.39375 217.79369Q22.065624 217.19994 22.346874 216.63744L23.01875 216.63744L23.01875 225.26244ZM26.64375 225.26244L26.64375 224.05931L27.846874 224.05931L27.846874 225.26244L26.64375 225.26244ZM34.596874 224.24681L34.596874 225.26244L28.909374 225.26244Q28.909374 224.88744 29.034374 224.52806Q29.253124 223.94994 29.721874 223.38744Q30.20625 222.82494 31.1125 222.09056Q32.51875 220.93431 33.003124 220.26244Q33.503124 219.59056 33.503124 218.99681Q33.503124 218.37181 33.05 217.94994Q32.596874 217.51244 31.878124 217.51244Q31.1125 217.51244 30.659374 217.96556Q30.20625 218.41869 30.190624 219.23119L29.1125 219.12181Q29.221874 217.90306 29.940624 217.27806Q30.675 216.63744 31.909374 216.63744Q33.14375 216.63744 33.8625 217.32494Q34.58125 218.01244 34.58125 219.02806Q34.58125 219.54369 34.3625 220.04369Q34.159374 220.52806 33.659374 221.09056Q33.175 221.63744 32.05 222.59056Q31.096874 223.38744 30.815624 223.68431Q30.55 223.96556 30.378124 224.24681L34.596874 224.24681ZM36.253124 218.73119Q36.253124 217.80931 36.70625 217.16869Q37.175 216.52806 38.05 216.52806Q38.8625 216.52806 39.39375 217.10619Q39.925 217.68431 39.925 218.79369Q39.925 219.88744 39.378124 220.48119Q38.846874 221.05931 38.065624 221.05931Q37.284374 221.05931 36.76875 220.48119Q36.253124 219.90306 36.253124 218.73119ZM38.08125 217.24681Q37.690624 217.24681 37.425 217.59056Q37.175 217.93431 37.175 218.84056Q37.175 219.66869 37.425 220.01244Q37.690624 220.34056 38.08125 220.34056Q38.4875 220.34056 38.7375 219.99681Q39.003124 219.65306 39.003124 218.76244Q39.003124 217.91869 38.7375 217.59056Q38.471874 217.24681 38.08125 217.24681ZM38.08125 225.57494L42.784374 216.52806L43.64375 216.52806L38.95625 225.57494L38.08125 225.57494ZM41.8 223.24681Q41.8 222.32494 42.253124 221.68431Q42.721874 221.04369 43.6125 221.04369Q44.425 221.04369 44.95625 221.62181Q45.4875 222.18431 45.4875 223.30931Q45.4875 224.40306 44.940624 224.99681Q44.409374 225.57494 43.6125 225.57494Q42.846874 225.57494 42.315624 224.99681Q41.8 224.41869 41.8 223.24681ZM43.64375 221.76244Q43.2375 221.76244 42.971874 222.10619Q42.721874 222.44994 42.721874 223.35619Q42.721874 224.16869 42.9875 224.51244Q43.253124 224.85619 43.64375 224.85619Q44.034374 224.85619 44.3 224.51244Q44.565624 224.16869 44.565624 223.26244Q44.565624 222.43431 44.3 222.10619Q44.034374 221.76244 43.64375 221.76244Z" fill-rule="nonzero"/><path stroke="#757575" stroke-width="1.0" stroke-linecap="butt" d="M18.55 212.76244L127.05 212.76244L143.75816 212.76244" fill-rule="nonzero"/><path fill="#9e9e9e" d="M145.75816 212.76244C145.75816 211.65787 144.86273 210.76244 143.75816 210.76244C142.6536 210.76244 141.75816 211.65787 141.75816 212.76244C141.75816 213.867 142.6536 214.76244 143.75816 214.76244C144.86273 214.76244 145.75816 213.867 145.75816 212.76244" fill-rule="nonzero"/><path fill="#9e9e9e" d="M23.01875 258.98465L21.971874 258.98465L21.971874 252.2659Q21.58125 252.62527 20.95625 253.00027Q20.346874 253.35965 19.8625 253.53152L19.8625 252.5159Q20.7375 252.09402 21.39375 251.5159Q22.065624 250.92215 22.346874 250.35965L23.01875 250.35965L23.01875 258.98465ZM26.64375 258.98465L26.64375 257.78152L27.846874 257.78152L27.846874 258.98465L26.64375 258.98465ZM34.596874 257.96902L34.596874 258.98465L28.909374 258.98465Q28.909374 258.60965 29.034374 258.25027Q29.253124 257.67215 29.721874 257.10965Q30.20625 256.54715 31.1125 255.81277Q32.51875 254.65652 33.003124 253.98465Q33.503124 253.31277 33.503124 252.71902Q33.503124 252.09402 33.05 251.67215Q32.596874 251.23465 31.878124 251.23465Q31.1125 251.23465 30.659374 251.68777Q30.20625 252.1409 30.190624 252.9534L29.1125 252.84402Q29.221874 251.62527 29.940624 251.00027Q30.675 250.35965 31.909374 250.35965Q33.14375 250.35965 33.8625 251.04715Q34.58125 251.73465 34.58125 252.75027Q34.58125 253.2659 34.3625 253.7659Q34.159374 254.25027 33.659374 254.81277Q33.175 255.35965 32.05 256.31277Q31.096874 257.10965 30.815624 257.40652Q30.55 257.68777 30.378124 257.96902L34.596874 257.96902ZM36.253124 252.4534Q36.253124 251.53152 36.70625 250.8909Q37.175 250.25027 38.05 250.25027Q38.8625 250.25027 39.39375 250.8284Q39.925 251.40652 39.925 252.5159Q39.925 253.60965 39.378124 254.2034Q38.846874 254.78152 38.065624 254.78152Q37.284374 254.78152 36.76875 254.2034Q36.253124 253.62527 36.253124 252.4534ZM38.08125 250.96902Q37.690624 250.96902 37.425 251.31277Q37.175 251.65652 37.175 252.56277Q37.175 253.3909 37.425 253.73465Q37.690624 254.06277 38.08125 254.06277Q38.4875 254.06277 38.7375 253.71902Q39.003124 253.37527 39.003124 252.48465Q39.003124 251.6409 38.7375 251.31277Q38.471874 250.96902 38.08125 250.96902ZM38.08125 259.29715L42.784374 250.25027L43.64375 250.25027L38.95625 259.29715L38.08125 259.29715ZM41.8 256.96902Q41.8 256.04715 42.253124 255.40652Q42.721874 254.7659 43.6125 254.7659Q44.425 254.7659 44.95625 255.34402Q45.4875 255.90652 45.4875 257.03152Q45.4875 258.12527 44.940624 258.71902Q44.409374 259.29715 43.6125 259.29715Q42.846874 259.29715 42.315624 258.71902Q41.8 258.1409 41.8 256.96902ZM43.64375 255.48465Q43.2375 255.48465 42.971874 255.8284Q42.721874 256.17215 42.721874 257.0784Q42.721874 257.8909 42.9875 258.23465Q43.253124 258.5784 43.64375 258.5784Q44.034374 258.5784 44.3 258.23465Q44.565624 257.8909 44.565624 256.98465Q44.565624 256.15652 44.3 255.8284Q44.034374 255.48465 43.64375 255.48465Z" fill-rule="nonzero"/><path stroke="#757575" stroke-width="1.0" stroke-linecap="butt" d="M18.55 246.48465L127.05 246.48465L153.5909 246.48465" fill-rule="nonzero"/><path fill="#9e9e9e" d="M155.5909 246.48465C155.5909 245.38008 154.69547 244.48465 153.5909 244.48465C152.48633 244.48465 151.5909 245.38008 151.5909 246.48465C151.5909 247.58922 152.48633 248.48465 153.5909 248.48465C154.69547 248.48465 155.5909 247.58922 155.5909 246.48465" fill-rule="nonzero"/><path fill="#9e9e9e" d="M23.01875 299.0187L21.971874 299.0187L21.971874 292.29996Q21.58125 292.65933 20.95625 293.03433Q20.346874 293.3937 19.8625 293.56558L19.8625 292.54996Q20.7375 292.12808 21.39375 291.54996Q22.065624 290.9562 22.346874 290.3937L23.01875 290.3937L23.01875 299.0187ZM26.64375 299.0187L26.64375 297.81558L27.846874 297.81558L27.846874 299.0187L26.64375 299.0187ZM34.596874 298.00308L34.596874 299.0187L28.909374 299.0187Q28.909374 298.6437 29.034374 298.28433Q29.253124 297.7062 29.721874 297.1437Q30.20625 296.5812 31.1125 295.84683Q32.51875 294.69058 33.003124 294.0187Q33.503124 293.34683 33.503124 292.75308Q33.503124 292.12808 33.05 291.7062Q32.596874 291.2687 31.878124 291.2687Q31.1125 291.2687 30.659374 291.72183Q30.20625 292.17496 30.190624 292.98746L29.1125 292.87808Q29.221874 291.65933 29.940624 291.03433Q30.675 290.3937 31.909374 290.3937Q33.14375 290.3937 33.8625 291.0812Q34.58125 291.7687 34.58125 292.78433Q34.58125 293.29996 34.3625 293.79996Q34.159374 294.28433 33.659374 294.84683Q33.175 295.3937 32.05 296.34683Q31.096874 297.1437 30.815624 297.44058Q30.55 297.72183 30.378124 298.00308L34.596874 298.00308ZM36.253124 292.48746Q36.253124 291.56558 36.70625 290.92496Q37.175 290.28433 38.05 290.28433Q38.8625 290.28433 39.39375 290.86246Q39.925 291.44058 39.925 292.54996Q39.925 293.6437 39.378124 294.23746Q38.846874 294.81558 38.065624 294.81558Q37.284374 294.81558 36.76875 294.23746Q36.253124 293.65933 36.253124 292.48746ZM38.08125 291.00308Q37.690624 291.00308 37.425 291.34683Q37.175 291.69058 37.175 292.59683Q37.175 293.42496 37.425 293.7687Q37.690624 294.09683 38.08125 294.09683Q38.4875 294.09683 38.7375 293.75308Q39.003124 293.40933 39.003124 292.5187Q39.003124 291.67496 38.7375 291.34683Q38.471874 291.00308 38.08125 291.00308ZM38.08125 299.3312L42.784374 290.28433L43.64375 290.28433L38.95625 299.3312L38.08125 299.3312ZM41.8 297.00308Q41.8 296.0812 42.253124 295.44058Q42.721874 294.79996 43.6125 294.79996Q44.425 294.79996 44.95625 295.37808Q45.4875 295.94058 45.4875 297.06558Q45.4875 298.15933 44.940624 298.75308Q44.409374 299.3312 43.6125 299.3312Q42.846874 299.3312 42.315624 298.75308Q41.8 298.17496 41.8 297.00308ZM43.64375 295.5187Q43.2375 295.5187 42.971874 295.86246Q42.721874 296.2062 42.721874 297.11246Q42.721874 297.92496 42.9875 298.2687Q43.253124 298.61246 43.64375 298.61246Q44.034374 298.61246 44.3 298.2687Q44.565624 297.92496 44.565624 297.0187Q44.565624 296.19058 44.3 295.86246Q44.034374 295.5187 43.64375 295.5187Z" fill-rule="nonzero"/><path stroke="#757575" stroke-width="1.0" stroke-linecap="butt" d="M18.55 286.5187L127.05 286.5187L177.7299 286.5187" fill-rule="nonzero"/><path fill="#9e9e9e" d="M179.7299 286.5187C179.7299 285.41412 178.83447 284.5187 177.7299 284.5187C176.62534 284.5187 175.7299 285.41412 175.7299 286.5187C175.7299 287.62326 176.62534 288.5187 177.7299 288.5187C178.83447 288.5187 179.7299 287.62326 179.7299 286.5187" fill-rule="nonzero"/><path fill="#9e9e9e" d="M23.01875 330.26874L21.971874 330.26874L21.971874 323.55Q21.58125 323.90936 20.95625 324.28436Q20.346874 324.64374 19.8625 324.8156L19.8625 323.8Q20.7375 323.3781 21.39375 322.8Q22.065624 322.20624 22.346874 321.64374L23.01875 321.64374L23.01875 330.26874ZM26.64375 330.26874L26.64375 329.0656L27.846874 329.0656L27.846874 330.26874L26.64375 330.26874ZM34.596874 329.2531L34.596874 330.26874L28.909374 330.26874Q28.909374 329.89374 29.034374 329.53436Q29.253124 328.95624 29.721874 328.39374Q30.20625 327.83124 31.1125 327.09686Q32.51875 325.9406 33.003124 325.26874Q33.503124 324.59686 33.503124 324.0031Q33.503124 323.3781 33.05 322.95624Q32.596874 322.51874 31.878124 322.51874Q31.1125 322.51874 30.659374 322.97186Q30.20625 323.425 30.190624 324.2375L29.1125 324.1281Q29.221874 322.90936 29.940624 322.28436Q30.675 321.64374 31.909374 321.64374Q33.14375 321.64374 33.8625 322.33124Q34.58125 323.01874 34.58125 324.03436Q34.58125 324.55 34.3625 325.05Q34.159374 325.53436 33.659374 326.09686Q33.175 326.64374 32.05 327.59686Q31.096874 328.39374 30.815624 328.6906Q30.55 328.97186 30.378124 329.2531L34.596874 329.2531ZM36.253124 323.7375Q36.253124 322.8156 36.70625 322.175Q37.175 321.53436 38.05 321.53436Q38.8625 321.53436 39.39375 322.1125Q39.925 322.6906 39.925 323.8Q39.925 324.89374 39.378124 325.4875Q38.846874 326.0656 38.065624 326.0656Q37.284374 326.0656 36.76875 325.4875Q36.253124 324.90936 36.253124 323.7375ZM38.08125 322.2531Q37.690624 322.2531 37.425 322.59686Q37.175 322.9406 37.175 323.84686Q37.175 324.675 37.425 325.01874Q37.690624 325.34686 38.08125 325.34686Q38.4875 325.34686 38.7375 325.0031Q39.003124 324.65936 39.003124 323.76874Q39.003124 322.925 38.7375 322.59686Q38.471874 322.2531 38.08125 322.2531ZM38.08125 330.58124L42.784374 321.53436L43.64375 321.53436L38.95625 330.58124L38.08125 330.58124ZM41.8 328.2531Q41.8 327.33124 42.253124 326.6906Q42.721874 326.05 43.6125 326.05Q44.425 326.05 44.95625 326.6281Q45.4875 327.1906 45.4875 328.3156Q45.4875 329.40936 44.940624 330.0031Q44.409374 330.58124 43.6125 330.58124Q42.846874 330.58124 42.315624 330.0031Q41.8 329.425 41.8 328.2531ZM43.64375 326.76874Q43.2375 326.76874 42.971874 327.1125Q42.721874 327.45624 42.721874 328.3625Q42.721874 329.175 42.9875 329.51874Q43.253124 329.8625 43.64375 329.8625Q44.034374 329.8625 44.3 329.51874Q44.565624 329.175 44.565624 328.26874Q44.565624 327.4406 44.3 327.1125Q44.034374 326.76874 43.64375 326.76874Z" fill-rule="nonzero"/><path stroke="#757575" stroke-width="1.0" stroke-linecap="butt" d="M18.55 317.76874L127.05 317.76874L212.48009 317.76874" fill-rule="nonzero"/><path fill="#9e9e9e" d="M214.48009 317.76874C214.48009 316.66415 213.58466 315.76874 212.48009 315.76874C211.37552 315.76874 210.48009 316.66415 210.48009 317.76874C210.48009 318.8733 211.37552 319.76874 212.48009 319.76874C213.58466 319.76874 214.48009 318.8733 214.48009 317.76874" fill-rule="nonzero"/><path fill="#9e9e9e" d="M557.91876 349.45L556.8719 349.45L556.8719 342.73126Q556.48126 343.09064 555.85626 343.46564Q555.2469 343.825 554.7625 343.9969L554.7625 342.98126Q555.6375 342.5594 556.29376 341.98126Q556.96564 341.3875 557.2469 340.825L557.91876 340.825L557.91876 349.45ZM561.54376 349.45L561.54376 348.2469L562.7469 348.2469L562.7469 349.45L561.54376 349.45ZM569.4969 348.4344L569.4969 349.45L563.8094 349.45Q563.8094 349.075 563.9344 348.71564Q564.15314 348.1375 564.6219 347.575Q565.10626 347.0125 566.0125 346.27814Q567.41876 345.1219 567.90314 344.45Q568.40314 343.77814 568.40314 343.1844Q568.40314 342.5594 567.95 342.1375Q567.4969 341.7 566.77814 341.7Q566.0125 341.7 565.5594 342.15314Q565.10626 342.60626 565.09064 343.41876L564.0125 343.3094Q564.1219 342.09064 564.84064 341.46564Q565.575 340.825 566.8094 340.825Q568.04376 340.825 568.7625 341.5125Q569.48126 342.2 569.48126 343.21564Q569.48126 343.73126 569.2625 344.23126Q569.0594 344.71564 568.5594 345.27814Q568.075 345.825 566.95 346.77814Q565.9969 347.575 565.71564 347.8719Q565.45 348.15314 565.27814 348.4344L569.4969 348.4344ZM571.15314 342.91876Q571.15314 341.9969 571.60626 341.35626Q572.075 340.71564 572.95 340.71564Q573.7625 340.71564 574.29376 341.29376Q574.825 341.8719 574.825 342.98126Q574.825 344.075 574.27814 344.66876Q573.7469 345.2469 572.96564 345.2469Q572.1844 345.2469 571.66876 344.66876Q571.15314 344.09064 571.15314 342.91876ZM572.98126 341.4344Q572.59064 341.4344 572.325 341.77814Q572.075 342.1219 572.075 343.02814Q572.075 343.85626 572.325 344.2Q572.59064 344.52814 572.98126 344.52814Q573.3875 344.52814 573.6375 344.1844Q573.90314 343.84064 573.90314 342.95Q573.90314 342.10626 573.6375 341.77814Q573.3719 341.4344 572.98126 341.4344ZM572.98126 349.7625L577.6844 340.71564L578.54376 340.71564L573.85626 349.7625L572.98126 349.7625ZM576.7 347.4344Q576.7 346.5125 577.15314 345.8719Q577.6219 345.23126 578.5125 345.23126Q579.325 345.23126 579.85626 345.8094Q580.3875 346.3719 580.3875 347.4969Q580.3875 348.59064 579.84064 349.1844Q579.3094 349.7625 578.5125 349.7625Q577.7469 349.7625 577.21564 349.1844Q576.7 348.60626 576.7 347.4344ZM578.54376 345.95Q578.1375 345.95 577.8719 346.29376Q577.6219 346.6375 577.6219 347.54376Q577.6219 348.35626 577.8875 348.7Q578.15314 349.04376 578.54376 349.04376Q578.9344 349.04376 579.2 348.7Q579.46564 348.35626 579.46564 347.45Q579.46564 346.6219 579.2 346.29376Q578.9344 345.95 578.54376 345.95Z" fill-rule="nonzero"/><path stroke="#757575" stroke-width="1.0" stroke-linecap="butt" d="M581.45 336.95L472.95 336.95L301.067 344.0989" fill-rule="nonzero"/><path fill="#9e9e9e" d="M303.067 344.0989C303.067 342.99435 302.17154 342.0989 301.067 342.0989C299.9624 342.0989 299.067 342.99435 299.067 344.0989C299.067 345.2035 299.9624 346.0989 301.067 346.0989C302.17154 346.0989 303.067 345.2035 303.067 344.0989" fill-rule="nonzero"/><path fill="#9e9e9e" d="M557.91876 46.55L556.8719 46.55L556.8719 39.83125Q556.48126 40.190624 555.85626 40.565624Q555.2469 40.925 554.7625 41.096874L554.7625 40.08125Q555.6375 39.659374 556.29376 39.08125Q556.96564 38.4875 557.2469 37.925L557.91876 37.925L557.91876 46.55ZM561.54376 46.55L561.54376 45.346874L562.7469 45.346874L562.7469 46.55L561.54376 46.55ZM569.4969 45.534374L569.4969 46.55L563.8094 46.55Q563.8094 46.175 563.9344 45.815624Q564.15314 45.2375 564.6219 44.675Q565.10626 44.1125 566.0125 43.378124Q567.41876 42.221874 567.90314 41.55Q568.40314 40.878124 568.40314 40.284374Q568.40314 39.659374 567.95 39.2375Q567.4969 38.8 566.77814 38.8Q566.0125 38.8 565.5594 39.253124Q565.10626 39.70625 565.09064 40.51875L564.0125 40.409374Q564.1219 39.190624 564.84064 38.565624Q565.575 37.925 566.8094 37.925Q568.04376 37.925 568.7625 38.6125Q569.48126 39.3 569.48126 40.315624Q569.48126 40.83125 569.2625 41.33125Q569.0594 41.815624 568.5594 42.378124Q568.075 42.925 566.95 43.878124Q565.9969 44.675 565.71564 44.971874Q565.45 45.253124 565.27814 45.534374L569.4969 45.534374ZM571.15314 40.01875Q571.15314 39.096874 571.60626 38.45625Q572.075 37.815624 572.95 37.815624Q573.7625 37.815624 574.29376 38.39375Q574.825 38.971874 574.825 40.08125Q574.825 41.175 574.27814 41.76875Q573.7469 42.346874 572.96564 42.346874Q572.1844 42.346874 571.66876 41.76875Q571.15314 41.190624 571.15314 40.01875ZM572.98126 38.534374Q572.59064 38.534374 572.325 38.878124Q572.075 39.221874 572.075 40.128124Q572.075 40.95625 572.325 41.3Q572.59064 41.628124 572.98126 41.628124Q573.3875 41.628124 573.6375 41.284374Q573.90314 40.940624 573.90314 40.05Q573.90314 39.20625 573.6375 38.878124Q573.3719 38.534374 572.98126 38.534374ZM572.98126 46.8625L577.6844 37.815624L578.54376 37.815624L573.85626 46.8625L572.98126 46.8625ZM576.7 44.534374Q576.7 43.6125 577.15314 42.971874Q577.6219 42.33125 578.5125 42.33125Q579.325 42.33125 579.85626 42.909374Q580.3875 43.471874 580.3875 44.596874Q580.3875 45.690624 579.84064 46.284374Q579.3094 46.8625 578.5125 46.8625Q577.7469 46.8625 577.21564 46.284374Q576.7 45.70625 576.7 44.534374ZM578.54376 43.05Q578.1375 43.05 577.8719 43.39375Q577.6219 43.7375 577.6219 44.64375Q577.6219 45.45625 577.8875 45.8Q578.15314 46.14375 578.54376 46.14375Q578.9344 46.14375 579.2 45.8Q579.46564 45.45625 579.46564 44.55Q579.46564 43.721874 579.2 43.39375Q578.9344 43.05 578.54376 43.05Z" fill-rule="nonzero"/><path stroke="#757575" stroke-width="1.0" stroke-linecap="butt" d="M581.45 34.05L472.95 34.05L305.79858 27.003534" fill-rule="nonzero"/><path fill="#9e9e9e" d="M307.79858 27.003534C307.79858 25.898966 306.90314 25.003534 305.79858 25.003534C304.694 25.003534 303.79858 25.898966 303.79858 27.003534C303.79858 28.108105 304.694 29.003534 305.79858 29.003534C306.90314 29.003534 307.79858 28.108105 307.79858 27.003534" fill-rule="nonzero"/><path fill="#9e9e9e" d="M557.91876 84.40871L556.8719 84.40871L556.8719 77.68996Q556.48126 78.04933 555.85626 78.42433Q555.2469 78.78371 554.7625 78.95558L554.7625 77.93996Q555.6375 77.51808 556.29376 76.93996Q556.96564 76.34621 557.2469 75.78371L557.91876 75.78371L557.91876 84.40871ZM561.54376 84.40871L561.54376 83.20558L562.7469 83.20558L562.7469 84.40871L561.54376 84.40871ZM569.4969 83.39308L569.4969 84.40871L563.8094 84.40871Q563.8094 84.03371 563.9344 83.67433Q564.15314 83.09621 564.6219 82.53371Q565.10626 81.97121 566.0125 81.23683Q567.41876 80.08058 567.90314 79.40871Q568.40314 78.73683 568.40314 78.14308Q568.40314 77.51808 567.95 77.09621Q567.4969 76.65871 566.77814 76.65871Q566.0125 76.65871 565.5594 77.11183Q565.10626 77.56496 565.09064 78.37746L564.0125 78.26808Q564.1219 77.04933 564.84064 76.42433Q565.575 75.78371 566.8094 75.78371Q568.04376 75.78371 568.7625 76.47121Q569.48126 77.15871 569.48126 78.17433Q569.48126 78.68996 569.2625 79.18996Q569.0594 79.67433 568.5594 80.23683Q568.075 80.78371 566.95 81.73683Q565.9969 82.53371 565.71564 82.83058Q565.45 83.11183 565.27814 83.39308L569.4969 83.39308ZM571.15314 77.87746Q571.15314 76.95558 571.60626 76.31496Q572.075 75.67433 572.95 75.67433Q573.7625 75.67433 574.29376 76.25246Q574.825 76.83058 574.825 77.93996Q574.825 79.03371 574.27814 79.62746Q573.7469 80.20558 572.96564 80.20558Q572.1844 80.20558 571.66876 79.62746Q571.15314 79.04933 571.15314 77.87746ZM572.98126 76.39308Q572.59064 76.39308 572.325 76.73683Q572.075 77.08058 572.075 77.98683Q572.075 78.81496 572.325 79.15871Q572.59064 79.48683 572.98126 79.48683Q573.3875 79.48683 573.6375 79.14308Q573.90314 78.79933 573.90314 77.90871Q573.90314 77.06496 573.6375 76.73683Q573.3719 76.39308 572.98126 76.39308ZM572.98126 84.72121L577.6844 75.67433L578.54376 75.67433L573.85626 84.72121L572.98126 84.72121ZM576.7 82.39308Q576.7 81.47121 577.15314 80.83058Q577.6219 80.18996 578.5125 80.18996Q579.325 80.18996 579.85626 80.76808Q580.3875 81.33058 580.3875 82.45558Q580.3875 83.54933 579.84064 84.14308Q579.3094 84.72121 578.5125 84.72121Q577.7469 84.72121 577.21564 84.14308Q576.7 83.56496 576.7 82.39308ZM578.54376 80.90871Q578.1375 80.90871 577.8719 81.25246Q577.6219 81.59621 577.6219 82.50246Q577.6219 83.31496 577.8875 83.65871Q578.15314 84.00246 578.54376 84.00246Q578.9344 84.00246 579.2 83.65871Q579.46564 83.31496 579.46564 82.40871Q579.46564 81.58058 579.2 81.25246Q578.9344 80.90871 578.54376 80.90871Z" fill-rule="nonzero"/><path stroke="#757575" stroke-width="1.0" stroke-linecap="butt" d="M581.45 71.90871L472.95 71.90871L410.6877 71.90871" fill-rule="nonzero"/><path fill="#9e9e9e" d="M412.6877 71.90871C412.6877 70.80414 411.7923 69.90871 410.6877 69.90871C409.58316 69.90871 408.6877 70.80414 408.6877 71.90871C408.6877 73.013275 409.58316 73.90871 410.6877 73.90871C411.7923 73.90871 412.6877 73.013275 412.6877 71.90871" fill-rule="nonzero"/><path fill="#9e9e9e" d="M557.91876 121.50628L556.8719 121.50628L556.8719 114.78753Q556.48126 115.146904 555.85626 115.521904Q555.2469 115.88128 554.7625 116.053154L554.7625 115.03753Q555.6375 114.615654 556.29376 114.03753Q556.96564 113.44378 557.2469 112.88128L557.91876 112.88128L557.91876 121.50628ZM561.54376 121.50628L561.54376 120.303154L562.7469 120.303154L562.7469 121.50628L561.54376 121.50628ZM569.4969 120.490654L569.4969 121.50628L563.8094 121.50628Q563.8094 121.13128 563.9344 120.771904Q564.15314 120.19378 564.6219 119.63128Q565.10626 119.06878 566.0125 118.334404Q567.41876 117.178154 567.90314 116.50628Q568.40314 115.834404 568.40314 115.240654Q568.40314 114.615654 567.95 114.19378Q567.4969 113.75628 566.77814 113.75628Q566.0125 113.75628 565.5594 114.209404Q565.10626 114.66253 565.09064 115.47503L564.0125 115.365654Q564.1219 114.146904 564.84064 113.521904Q565.575 112.88128 566.8094 112.88128Q568.04376 112.88128 568.7625 113.56878Q569.48126 114.25628 569.48126 115.271904Q569.48126 115.78753 569.2625 116.28753Q569.0594 116.771904 568.5594 117.334404Q568.075 117.88128 566.95 118.834404Q565.9969 119.63128 565.71564 119.928154Q565.45 120.209404 565.27814 120.490654L569.4969 120.490654ZM571.15314 114.97503Q571.15314 114.053154 571.60626 113.41253Q572.075 112.771904 572.95 112.771904Q573.7625 112.771904 574.29376 113.35003Q574.825 113.928154 574.825 115.03753Q574.825 116.13128 574.27814 116.72503Q573.7469 117.303154 572.96564 117.303154Q572.1844 117.303154 571.66876 116.72503Q571.15314 116.146904 571.15314 114.97503ZM572.98126 113.490654Q572.59064 113.490654 572.325 113.834404Q572.075 114.178154 572.075 115.084404Q572.075 115.91253 572.325 116.25628Q572.59064 116.584404 572.98126 116.584404Q573.3875 116.584404 573.6375 116.240654Q573.90314 115.896904 573.90314 115.00628Q573.90314 114.16253 573.6375 113.834404Q573.3719 113.490654 572.98126 113.490654ZM572.98126 121.81878L577.6844 112.771904L578.54376 112.771904L573.85626 121.81878L572.98126 121.81878ZM576.7 119.490654Q576.7 118.56878 577.15314 117.928154Q577.6219 117.28753 578.5125 117.28753Q579.325 117.28753 579.85626 117.865654Q580.3875 118.428154 580.3875 119.553154Q580.3875 120.646904 579.84064 121.240654Q579.3094 121.81878 578.5125 121.81878Q577.7469 121.81878 577.21564 121.240654Q576.7 120.66253 576.7 119.490654ZM578.54376 118.00628Q578.1375 118.00628 577.8719 118.35003Q577.6219 118.69378 577.6219 119.60003Q577.6219 120.41253 577.8875 120.75628Q578.15314 121.10003 578.54376 121.10003Q578.9344 121.10003 579.2 120.75628Q579.46564 120.41253 579.46564 119.50628Q579.46564 118.678154 579.2 118.35003Q578.9344 118.00628 578.54376 118.00628Z" fill-rule="nonzero"/><path stroke="#757575" stroke-width="1.0" stroke-linecap="butt" d="M581.45 109.00628L472.95 109.00628L438.93692 109.00628" fill-rule="nonzero"/><path fill="#9e9e9e" d="M440.93692 109.00628C440.93692 107.90171 440.04147 107.00628 438.93692 107.00628C437.83234 107.00628 436.93692 107.90171 436.93692 109.00628C436.93692 110.11085 437.83234 111.00628 438.93692 111.00628C440.04147 111.00628 440.93692 110.11085 440.93692 109.00628" fill-rule="nonzero"/><path fill="#9e9e9e" d="M557.91876 153.8755L556.8719 153.8755L556.8719 147.15675Q556.48126 147.51613 555.85626 147.89113Q555.2469 148.2505 554.7625 148.42238L554.7625 147.40675Q555.6375 146.98488 556.29376 146.40675Q556.96564 145.813 557.2469 145.2505L557.91876 145.2505L557.91876 153.8755ZM561.54376 153.8755L561.54376 152.67238L562.7469 152.67238L562.7469 153.8755L561.54376 153.8755ZM569.4969 152.85988L569.4969 153.8755L563.8094 153.8755Q563.8094 153.5005 563.9344 153.14113Q564.15314 152.563 564.6219 152.0005Q565.10626 151.438 566.0125 150.70363Q567.41876 149.54738 567.90314 148.8755Q568.40314 148.20363 568.40314 147.60988Q568.40314 146.98488 567.95 146.563Q567.4969 146.1255 566.77814 146.1255Q566.0125 146.1255 565.5594 146.57863Q565.10626 147.03175 565.09064 147.84425L564.0125 147.73488Q564.1219 146.51613 564.84064 145.89113Q565.575 145.2505 566.8094 145.2505Q568.04376 145.2505 568.7625 145.938Q569.48126 146.6255 569.48126 147.64113Q569.48126 148.15675 569.2625 148.65675Q569.0594 149.14113 568.5594 149.70363Q568.075 150.2505 566.95 151.20363Q565.9969 152.0005 565.71564 152.29738Q565.45 152.57863 565.27814 152.85988L569.4969 152.85988ZM571.15314 147.34425Q571.15314 146.42238 571.60626 145.78175Q572.075 145.14113 572.95 145.14113Q573.7625 145.14113 574.29376 145.71925Q574.825 146.29738 574.825 147.40675Q574.825 148.5005 574.27814 149.09425Q573.7469 149.67238 572.96564 149.67238Q572.1844 149.67238 571.66876 149.09425Q571.15314 148.51613 571.15314 147.34425ZM572.98126 145.85988Q572.59064 145.85988 572.325 146.20363Q572.075 146.54738 572.075 147.45363Q572.075 148.28175 572.325 148.6255Q572.59064 148.95363 572.98126 148.95363Q573.3875 148.95363 573.6375 148.60988Q573.90314 148.26613 573.90314 147.3755Q573.90314 146.53175 573.6375 146.20363Q573.3719 145.85988 572.98126 145.85988ZM572.98126 154.188L577.6844 145.14113L578.54376 145.14113L573.85626 154.188L572.98126 154.188ZM576.7 151.85988Q576.7 150.938 577.15314 150.29738Q577.6219 149.65675 578.5125 149.65675Q579.325 149.65675 579.85626 150.23488Q580.3875 150.79738 580.3875 151.92238Q580.3875 153.01613 579.84064 153.60988Q579.3094 154.188 578.5125 154.188Q577.7469 154.188 577.21564 153.60988Q576.7 153.03175 576.7 151.85988ZM578.54376 150.3755Q578.1375 150.3755 577.8719 150.71925Q577.6219 151.063 577.6219 151.96925Q577.6219 152.78175 577.8875 153.1255Q578.15314 153.46925 578.54376 153.46925Q578.9344 153.46925 579.2 153.1255Q579.46564 152.78175 579.46564 151.8755Q579.46564 151.04738 579.2 150.71925Q578.9344 150.3755 578.54376 150.3755Z" fill-rule="nonzero"/><path stroke="#757575" stroke-width="1.0" stroke-linecap="butt" d="M581.45 141.3755L472.95 141.3755L452.341 141.3755" fill-rule="nonzero"/><path fill="#9e9e9e" d="M454.341 141.3755C454.341 140.27094 453.4456 139.3755 452.341 139.3755C451.23642 139.3755 450.341 140.27094 450.341 141.3755C450.341 142.48007 451.23642 143.3755 452.341 143.3755C453.4456 143.3755 454.341 142.48007 454.341 141.3755" fill-rule="nonzero"/><path fill="#9e9e9e" d="M557.91876 188.404L556.8719 188.404L556.8719 181.68526Q556.48126 182.04463 555.85626 182.41963Q555.2469 182.779 554.7625 182.95088L554.7625 181.93526Q555.6375 181.51338 556.29376 180.93526Q556.96564 180.3415 557.2469 179.779L557.91876 179.779L557.91876 188.404ZM561.54376 188.404L561.54376 187.20088L562.7469 187.20088L562.7469 188.404L561.54376 188.404ZM569.4969 187.38838L569.4969 188.404L563.8094 188.404Q563.8094 188.029 563.9344 187.66963Q564.15314 187.0915 564.6219 186.529Q565.10626 185.9665 566.0125 185.23213Q567.41876 184.07588 567.90314 183.404Q568.40314 182.73213 568.40314 182.13838Q568.40314 181.51338 567.95 181.0915Q567.4969 180.654 566.77814 180.654Q566.0125 180.654 565.5594 181.10713Q565.10626 181.56026 565.09064 182.37276L564.0125 182.26338Q564.1219 181.04463 564.84064 180.41963Q565.575 179.779 566.8094 179.779Q568.04376 179.779 568.7625 180.4665Q569.48126 181.154 569.48126 182.16963Q569.48126 182.68526 569.2625 183.18526Q569.0594 183.66963 568.5594 184.23213Q568.075 184.779 566.95 185.73213Q565.9969 186.529 565.71564 186.82588Q565.45 187.10713 565.27814 187.38838L569.4969 187.38838ZM571.15314 181.87276Q571.15314 180.95088 571.60626 180.31026Q572.075 179.66963 572.95 179.66963Q573.7625 179.66963 574.29376 180.24776Q574.825 180.82588 574.825 181.93526Q574.825 183.029 574.27814 183.62276Q573.7469 184.20088 572.96564 184.20088Q572.1844 184.20088 571.66876 183.62276Q571.15314 183.04463 571.15314 181.87276ZM572.98126 180.38838Q572.59064 180.38838 572.325 180.73213Q572.075 181.07588 572.075 181.98213Q572.075 182.81026 572.325 183.154Q572.59064 183.48213 572.98126 183.48213Q573.3875 183.48213 573.6375 183.13838Q573.90314 182.79463 573.90314 181.904Q573.90314 181.06026 573.6375 180.73213Q573.3719 180.38838 572.98126 180.38838ZM572.98126 188.7165L577.6844 179.66963L578.54376 179.66963L573.85626 188.7165L572.98126 188.7165ZM576.7 186.38838Q576.7 185.4665 577.15314 184.82588Q577.6219 184.18526 578.5125 184.18526Q579.325 184.18526 579.85626 184.76338Q580.3875 185.32588 580.3875 186.45088Q580.3875 187.54463 579.84064 188.13838Q579.3094 188.7165 578.5125 188.7165Q577.7469 188.7165 577.21564 188.13838Q576.7 187.56026 576.7 186.38838ZM578.54376 184.904Q578.1375 184.904 577.8719 185.24776Q577.6219 185.5915 577.6219 186.49776Q577.6219 187.31026 577.8875 187.654Q578.15314 187.99776 578.54376 187.99776Q578.9344 187.99776 579.2 187.654Q579.46564 187.31026 579.46564 186.404Q579.46564 185.57588 579.2 185.24776Q578.9344 184.904 578.54376 184.904Z" fill-rule="nonzero"/><path stroke="#757575" stroke-width="1.0" stroke-linecap="butt" d="M581.45 175.904L472.95 175.904L458.31195 175.904" fill-rule="nonzero"/><path fill="#9e9e9e" d="M460.31195 175.904C460.31195 174.79942 459.4165 173.904 458.31195 173.904C457.20737 173.904 456.31195 174.79942 456.31195 175.904C456.31195 177.00858 457.20737 177.904 458.31195 177.904C459.4165 177.904 460.31195 177.00858 460.31195 175.904" fill-rule="nonzero"/><path fill="#9e9e9e" d="M557.91876 223.40678L556.8719 223.40678L556.8719 216.68803Q556.48126 217.04741 555.85626 217.42241Q555.2469 217.78178 554.7625 217.95366L554.7625 216.93803Q555.6375 216.51616 556.29376 215.93803Q556.96564 215.34428 557.2469 214.78178L557.91876 214.78178L557.91876 223.40678ZM561.54376 223.40678L561.54376 222.20366L562.7469 222.20366L562.7469 223.40678L561.54376 223.40678ZM569.4969 222.39116L569.4969 223.40678L563.8094 223.40678Q563.8094 223.03178 563.9344 222.67241Q564.15314 222.09428 564.6219 221.53178Q565.10626 220.96928 566.0125 220.23491Q567.41876 219.07866 567.90314 218.40678Q568.40314 217.73491 568.40314 217.14116Q568.40314 216.51616 567.95 216.09428Q567.4969 215.65678 566.77814 215.65678Q566.0125 215.65678 565.5594 216.10991Q565.10626 216.56303 565.09064 217.37553L564.0125 217.26616Q564.1219 216.04741 564.84064 215.42241Q565.575 214.78178 566.8094 214.78178Q568.04376 214.78178 568.7625 215.46928Q569.48126 216.15678 569.48126 217.17241Q569.48126 217.68803 569.2625 218.18803Q569.0594 218.67241 568.5594 219.23491Q568.075 219.78178 566.95 220.73491Q565.9969 221.53178 565.71564 221.82866Q565.45 222.10991 565.27814 222.39116L569.4969 222.39116ZM571.15314 216.87553Q571.15314 215.95366 571.60626 215.31303Q572.075 214.67241 572.95 214.67241Q573.7625 214.67241 574.29376 215.25053Q574.825 215.82866 574.825 216.93803Q574.825 218.03178 574.27814 218.62553Q573.7469 219.20366 572.96564 219.20366Q572.1844 219.20366 571.66876 218.62553Q571.15314 218.04741 571.15314 216.87553ZM572.98126 215.39116Q572.59064 215.39116 572.325 215.73491Q572.075 216.07866 572.075 216.98491Q572.075 217.81303 572.325 218.15678Q572.59064 218.48491 572.98126 218.48491Q573.3875 218.48491 573.6375 218.14116Q573.90314 217.79741 573.90314 216.90678Q573.90314 216.06303 573.6375 215.73491Q573.3719 215.39116 572.98126 215.39116ZM572.98126 223.71928L577.6844 214.67241L578.54376 214.67241L573.85626 223.71928L572.98126 223.71928ZM576.7 221.39116Q576.7 220.46928 577.15314 219.82866Q577.6219 219.18803 578.5125 219.18803Q579.325 219.18803 579.85626 219.76616Q580.3875 220.32866 580.3875 221.45366Q580.3875 222.54741 579.84064 223.14116Q579.3094 223.71928 578.5125 223.71928Q577.7469 223.71928 577.21564 223.14116Q576.7 222.56303 576.7 221.39116ZM578.54376 219.90678Q578.1375 219.90678 577.8719 220.25053Q577.6219 220.59428 577.6219 221.50053Q577.6219 222.31303 577.8875 222.65678Q578.15314 223.00053 578.54376 223.00053Q578.9344 223.00053 579.2 222.65678Q579.46564 222.31303 579.46564 221.40678Q579.46564 220.57866 579.2 220.25053Q578.9344 219.90678 578.54376 219.90678Z" fill-rule="nonzero"/><path stroke="#757575" stroke-width="1.0" stroke-linecap="butt" d="M581.45 210.90678L472.95 210.90678L456.5543 210.90678" fill-rule="nonzero"/><path fill="#9e9e9e" d="M458.5543 210.90678C458.5543 209.80222 457.65887 208.90678 456.5543 208.90678C455.44974 208.90678 454.5543 209.80222 454.5543 210.90678C454.5543 212.01135 455.44974 212.90678 456.5543 212.90678C457.65887 212.90678 458.5543 212.01135 458.5543 210.90678" fill-rule="nonzero"/><path fill="#9e9e9e" d="M557.91876 257.17438L556.8719 257.17438L556.8719 250.45563Q556.48126 250.815 555.85626 251.19Q555.2469 251.54938 554.7625 251.72125L554.7625 250.70563Q555.6375 250.28375 556.29376 249.70563Q556.96564 249.11188 557.2469 248.54938L557.91876 248.54938L557.91876 257.17438ZM561.54376 257.17438L561.54376 255.97125L562.7469 255.97125L562.7469 257.17438L561.54376 257.17438ZM569.4969 256.15875L569.4969 257.17438L563.8094 257.17438Q563.8094 256.79938 563.9344 256.44Q564.15314 255.86188 564.6219 255.29938Q565.10626 254.73688 566.0125 254.0025Q567.41876 252.84625 567.90314 252.17438Q568.40314 251.5025 568.40314 250.90875Q568.40314 250.28375 567.95 249.86188Q567.4969 249.42438 566.77814 249.42438Q566.0125 249.42438 565.5594 249.8775Q565.10626 250.33063 565.09064 251.14313L564.0125 251.03375Q564.1219 249.815 564.84064 249.19Q565.575 248.54938 566.8094 248.54938Q568.04376 248.54938 568.7625 249.23688Q569.48126 249.92438 569.48126 250.94Q569.48126 251.45563 569.2625 251.95563Q569.0594 252.44 568.5594 253.0025Q568.075 253.54938 566.95 254.5025Q565.9969 255.29938 565.71564 255.59625Q565.45 255.8775 565.27814 256.15875L569.4969 256.15875ZM571.15314 250.64313Q571.15314 249.72125 571.60626 249.08063Q572.075 248.44 572.95 248.44Q573.7625 248.44 574.29376 249.01813Q574.825 249.59625 574.825 250.70563Q574.825 251.79938 574.27814 252.39313Q573.7469 252.97125 572.96564 252.97125Q572.1844 252.97125 571.66876 252.39313Q571.15314 251.815 571.15314 250.64313ZM572.98126 249.15875Q572.59064 249.15875 572.325 249.5025Q572.075 249.84625 572.075 250.7525Q572.075 251.58063 572.325 251.92438Q572.59064 252.2525 572.98126 252.2525Q573.3875 252.2525 573.6375 251.90875Q573.90314 251.565 573.90314 250.67438Q573.90314 249.83063 573.6375 249.5025Q573.3719 249.15875 572.98126 249.15875ZM572.98126 257.48688L577.6844 248.44L578.54376 248.44L573.85626 257.48688L572.98126 257.48688ZM576.7 255.15875Q576.7 254.23688 577.15314 253.59625Q577.6219 252.95563 578.5125 252.95563Q579.325 252.95563 579.85626 253.53375Q580.3875 254.09625 580.3875 255.22125Q580.3875 256.315 579.84064 256.90875Q579.3094 257.48688 578.5125 257.48688Q577.7469 257.48688 577.21564 256.90875Q576.7 256.33063 576.7 255.15875ZM578.54376 253.67438Q578.1375 253.67438 577.8719 254.01813Q577.6219 254.36188 577.6219 255.26813Q577.6219 256.08063 577.8875 256.42438Q578.15314 256.76813 578.54376 256.76813Q578.9344 256.76813 579.2 256.42438Q579.46564 256.08063 579.46564 255.17438Q579.46564 254.34625 579.2 254.01813Q578.9344 253.67438 578.54376 253.67438Z" fill-rule="nonzero"/><path stroke="#757575" stroke-width="1.0" stroke-linecap="butt" d="M581.45 244.67438L472.95 244.67438L447.1501 244.67438" fill-rule="nonzero"/><path fill="#9e9e9e" d="M449.1501 244.67438C449.1501 243.56981 448.25464 242.67438 447.1501 242.67438C446.0455 242.67438 445.1501 243.56981 445.1501 244.67438C445.1501 245.77895 446.0455 246.67438 447.1501 246.67438C448.25464 246.67438 449.1501 245.77895 449.1501 244.67438" fill-rule="nonzero"/><path fill="#9e9e9e" d="M557.91876 297.44186L556.8719 297.44186L556.8719 290.7231Q556.48126 291.0825 555.85626 291.4575Q555.2469 291.81686 554.7625 291.98874L554.7625 290.9731Q555.6375 290.55124 556.29376 289.9731Q556.96564 289.37936 557.2469 288.81686L557.91876 288.81686L557.91876 297.44186ZM561.54376 297.44186L561.54376 296.23874L562.7469 296.23874L562.7469 297.44186L561.54376 297.44186ZM569.4969 296.42624L569.4969 297.44186L563.8094 297.44186Q563.8094 297.06686 563.9344 296.7075Q564.15314 296.12936 564.6219 295.56686Q565.10626 295.00436 566.0125 294.27Q567.41876 293.11374 567.90314 292.44186Q568.40314 291.77 568.40314 291.17624Q568.40314 290.55124 567.95 290.12936Q567.4969 289.69186 566.77814 289.69186Q566.0125 289.69186 565.5594 290.145Q565.10626 290.5981 565.09064 291.4106L564.0125 291.30124Q564.1219 290.0825 564.84064 289.4575Q565.575 288.81686 566.8094 288.81686Q568.04376 288.81686 568.7625 289.50436Q569.48126 290.19186 569.48126 291.2075Q569.48126 291.7231 569.2625 292.2231Q569.0594 292.7075 568.5594 293.27Q568.075 293.81686 566.95 294.77Q565.9969 295.56686 565.71564 295.86374Q565.45 296.145 565.27814 296.42624L569.4969 296.42624ZM571.15314 290.9106Q571.15314 289.98874 571.60626 289.3481Q572.075 288.7075 572.95 288.7075Q573.7625 288.7075 574.29376 289.2856Q574.825 289.86374 574.825 290.9731Q574.825 292.06686 574.27814 292.6606Q573.7469 293.23874 572.96564 293.23874Q572.1844 293.23874 571.66876 292.6606Q571.15314 292.0825 571.15314 290.9106ZM572.98126 289.42624Q572.59064 289.42624 572.325 289.77Q572.075 290.11374 572.075 291.02Q572.075 291.8481 572.325 292.19186Q572.59064 292.52 572.98126 292.52Q573.3875 292.52 573.6375 292.17624Q573.90314 291.8325 573.90314 290.94186Q573.90314 290.0981 573.6375 289.77Q573.3719 289.42624 572.98126 289.42624ZM572.98126 297.75436L577.6844 288.7075L578.54376 288.7075L573.85626 297.75436L572.98126 297.75436ZM576.7 295.42624Q576.7 294.50436 577.15314 293.86374Q577.6219 293.2231 578.5125 293.2231Q579.325 293.2231 579.85626 293.80124Q580.3875 294.36374 580.3875 295.48874Q580.3875 296.5825 579.84064 297.17624Q579.3094 297.75436 578.5125 297.75436Q577.7469 297.75436 577.21564 297.17624Q576.7 296.5981 576.7 295.42624ZM578.54376 293.94186Q578.1375 293.94186 577.8719 294.2856Q577.6219 294.62936 577.6219 295.5356Q577.6219 296.3481 577.8875 296.69186Q578.15314 297.0356 578.54376 297.0356Q578.9344 297.0356 579.2 296.69186Q579.46564 296.3481 579.46564 295.44186Q579.46564 294.61374 579.2 294.2856Q578.9344 293.94186 578.54376 293.94186Z" fill-rule="nonzero"/><path stroke="#757575" stroke-width="1.0" stroke-linecap="butt" d="M581.45 284.94186L472.95 284.94186L423.55594 284.94186" fill-rule="nonzero"/><path fill="#9e9e9e" d="M425.55594 284.94186C425.55594 283.83728 424.6605 282.94186 423.55594 282.94186C422.45135 282.94186 421.55594 283.83728 421.55594 284.94186C421.55594 286.04642 422.45135 286.94186 423.55594 286.94186C424.6605 286.94186 425.55594 286.04642 425.55594 284.94186" fill-rule="nonzero"/></svg>